# xmcd
#
# Track frame offsets: 
#        150
#        13282
#        22385
#        34697
#        52222
#        64042
#        76895
#        93400
#        107187
#        122077
#        135832
#
# Disc length: 1970 seconds
#
# Revision: 3
# Processed by: cddbd v1.5.2PL0 Copyright (c) Steve Scherf et al.
# Submitted via: ExactAudioCopyFreeDBPlugin 1.0
#
DISCID=9407b00b
DTITLE=Johnny Cash - I Would Like To See You Again
DYEAR=1979
DGENRE=Country
TTITLE0=I Would Like To See You Again
TTITLE1=Lately
TTITLE2=I Wish I Was Crazy Again
TTITLE3=Who's Gene Autry?
TTITLE4=Hurt So Bad
TTITLE5=I Don't Think I Could Take You Back Again
TTITLE6=Abner Brown
TTITLE7=After Taxes
TTITLE8=There Ain't No Good Chain Gang
TTITLE9=That's The Way It Is
TTITLE10=I'm Alright Now
EXTD=DCC Sony Special Products  A 31493\r\n
EXTT0=
EXTT1=
EXTT2=
EXTT3=
EXTT4=
EXTT5=
EXTT6=
EXTT7=
EXTT8=
EXTT9=
EXTT10=
PLAYORDER=
